<svg xmlns="http://www.w3.org/2000/svg" viewBox="0 0 512 512">
    <!-- Фон круга -->
    <circle cx="256" cy="256" r="256" fill="#2c3e50"/>
    
    <!-- Иконка автомобиля (аналогичная fa-car-crash) -->
    <path fill="#e74c3c" d="M256 64c-106 0-192 86-192 192s86 192 192 192 192-86 192-192S362 64 256 64zm0 352c-88.4 0-160-71.6-160-160S167.6 96 256 96s160 71.6 160 160-71.6 160-160 160z"/>
    <path fill="#fff" d="M384 224h-32l-32-64H192l-32 64h-32c-17.7 0-32 14.3-32 32v64c0 17.7 14.3 32 32 32h32v32c0 17.7 14.3 32 32 32h32c17.7 0 32-14.3 32-32v-32h64v32c0 17.7 14.3 32 32 32h32c17.7 0 32-14.3 32-32v-32h32c17.7 0 32-14.3 32-32v-64c0-17.7-14.3-32-32-32zm-224 96c-17.7 0-32-14.3-32-32s14.3-32 32-32 32 14.3 32 32-14.3 32-32 32zm192 0c-17.7 0-32-14.3-32-32s14.3-32 32-32 32 14.3 32 32-14.3 32-32 32z"/>
    
    <!-- Текст AutoHelper24 (упрощенный вариант) -->
    <text x="256" y="420" font-family="Arial" font-size="40" fill="#fff" text-anchor="middle">AH24</text>
</svg>
